<svg fill="#f50049" stroke="#f50049" xmlns="http://www.w3.org/2000/svg" width="62" height="62" viewBox="0 0 463 463"><g stroke-width="6" stroke-miterlimit="10"><path d="M393.1 69.9C349.9 26.7 292.6 3 231.5 3S113.1 26.7 69.9 69.9C26.7 113.1 3 170.4 3 231.5s23.7 118.4 66.9 161.6c43.2 43.2 100.5 66.9 161.6 66.9s118.4-23.7 161.6-66.9c43.2-43.2 66.9-100.5 66.9-161.6s-23.7-118.4-66.9-161.6zm-9.6 313.6c-40.6 40.6-94.5 62.9-152 62.9s-111.4-22.3-152-62.9c-40.5-40.6-62.9-94.6-62.9-152s22.3-111.4 62.9-152c40.6-40.5 94.6-62.9 152-62.9s111.4 22.3 152 62.9 62.9 94.5 62.9 152-22.4 111.4-62.9 152z"/><path d="M405.4 157.4l-12.3 5.7c11.6 24.8 17.5 51.6 17.5 79.4h13.6c-.1-29.8-6.3-58.4-18.8-85.1zm-37.8-58.8c-38-38-88.6-59-142.4-59v13.6c50.2 0 97.3 19.5 132.8 55 11.5 11.5 21.4 24.4 29.5 38.2l11.7-6.9c-8.6-14.8-19.3-28.6-31.6-40.9z"/></g><path stroke-width="5" stroke-miterlimit="10" d="M306.1 279h-7.8c-13.4 0-38.4 2.5-54.6 18.7-2.1 2.1-4 4.5-5.7 7v-37h.8c13.4 0 38.4-2.4 54.6-18.7 22.3-22.3 18.6-60.8 18.5-62.4-.4-3-2.8-5.4-5.8-5.8h-7.8c-13.4 0-38.4 2.5-54.6 18.7-2.1 2.1-4 4.5-5.7 7v-17c7.3-6.5 28.7-28.4 28.7-55.1 0-31.5-29.8-56.1-31.1-57.1-2.4-2-5.8-2-8.2 0-1.3 1.1-31.1 25.7-31.1 57.1 0 26.7 21.4 48.5 28.7 55.1v16.6c-1.7-2.5-3.6-4.8-5.7-7.1-16.3-16.3-41.2-18.7-54.6-18.7h-7.8c-3 .4-5.4 2.8-5.8 5.8 0 1.6-3.8 40.1 18.5 62.4 16.3 16.3 41.2 18.7 54.6 18.7h.8v36.6c-1.7-2.4-3.7-4.6-5.8-6.6-16.3-16.3-41.2-18.7-54.6-18.7h-7.8c-3 .4-5.4 2.8-5.8 5.8 0 1.6-3.8 40.1 18.5 62.4 16.3 16.3 41.2 18.7 54.6 18.7h.8v53.2c0 3.6 2.9 6.5 6.5 6.5s6.5-2.9 6.5-6.5v-52.8h.7c13.4 0 38.4-2.4 54.6-18.7 22.3-22.3 18.6-60.8 18.5-62.4-.1-2.9-2.5-5.4-5.6-5.7zm-127.3-39.1c-13.5-13.5-15-36-15-46.3h.8c9.2 0 32 1.4 45.5 15s15 36 15 46.3c-8.8.2-32.3-1.1-46.3-15zm46.4 113c-8.8.2-32.4-1.1-46.3-15-13.5-13.5-15-36-15-46.3 8.9 0 32.5 1.1 46.3 15s15.1 36 15 46.3zm6.6-175c-7.5-7.3-22.2-24.3-22.2-43.4s14.8-36 22.1-43.3c7.4 7.3 22.1 24.3 22.1 43.3s-14.6 36.1-22 43.4zm21.4 30.6l-.4.1c13.5-13.5 36.3-15 45.5-15h.8c0 10.4-1.3 32.5-15 46.3s-37.4 15.2-46.3 15c.3-10.6 1.8-32.9 15.4-46.4zM284.5 338c-13.6 13.8-36.2 15-45.5 15h-.8c0-10.4 1.5-32.8 15-46.3l-.1-.1c13.5-13.5 36.3-15 45.5-15h.8c0 10.3-1.3 32.5-14.9 46.4z"/></svg>