<svg xmlns="http://www.w3.org/2000/svg"><symbol id="icon-fresh" viewBox="0 0 183.2 109.2"><path d="M0 37V26c.8-.5.8-1.3 1.1-2.1C4.5 11.7 12.4 4 24.7.9 25.5.7 26.2.3 27 0h10c.3.2.5.5.8.6 11.6 2.6 19.7 9.4 24 20.5.8 2.2 2 2.3 3.8 1.6 8.7-3.1 17.7-4.5 26.9-4.7 3.6-.1 4.9-2.3 3.4-5.5-.4-.9-1.3-1.5-1.8-2.4C92.4 7.2 92.9 4 95.4 2c2.1-1.6 5.3-1.7 7.4-.1 2.4 1.9 3.1 5.3 1.5 8.1-.3.6-.9 1-1.2 1.6-2.4 3.7-1.3 6.1 3 6.6 9.1 1 18.1 2.9 26.6 6.4 20.9 8.7 34.7 24.2 43.1 44.9 4.2 10.4 6.9 21.2 7.4 32.5.2 5.1-1.7 7-6.7 7.2h-156c-6.6 0-8.5-2.3-7.9-9 1-12.2 3.8-24 8.6-35.2 1.3-3.1 1.3-3.2-1.9-4.7C9.6 56 3.5 48.8.9 38.6.8 38 .6 37.4 0 37zm137.8 44.2v18c0 4.2.1 4.2 4.1 4.2h31c4.5 0 4.6-.1 4.2-4.4-1.2-12.4-4.6-24.2-10.4-35.2-7.5-14.5-18.3-25.9-33.4-32.5-20.9-9.2-42.5-9.8-64.5-3.7-3.7 1-5.1 2.8-5.6 6.8-1.8 16.8-14.3 28-31.2 28.5-2.8 0-4.1 1-5.1 3.4-4.6 10.5-7.3 21.4-8.4 32.7-.4 4.1-.4 4.3 3.7 4.3 9.8.1 19.7 0 29.5 0 4.4 0 4.4-.1 4.4-4.4V63.4c0-5.3 1.2-6.4 6.5-6.4h23.5c.6 0 1.7-.1 1.8-.4.2-.8-.8-.9-1.3-1.2-7.3-3.5-10.3-9.5-9.8-17.5.2-2.3 1-3.2 3.3-3.2 7.2.1 13.6 2.1 17.5 8.6 1.5 2.4 2.1 2 3.7.2 2.2-2.5 5.2-3.5 8.5-3.8 2-.2 3 .4 3.3 2.6.6 6-1.7 10.3-7 13.1-.5.3-1.4.4-1 1.2.1.3.9.3 1.4.3h24c6.6 0 7.3.8 7.3 7.5v16.8zM57 31.8c.7-13.6-10.6-25.1-25.2-25.7C18.7 5.6 5 19.2 6.1 31.7c1.4 15.7 10.7 24.6 25.6 25 14.5.5 25.8-11.8 25.3-24.9zM97.1 63H65.6c-3.5 0-3.6.1-3.6 3.6-.1 2.8 0 5.7 0 8.5 0 1.5.1 3 1.1 4.2C69.8 88.1 78.3 90 86.7 83c2.3-1.9 4.4-4.1 6.9-5.8 5.4-3.9 9.9-3.6 14.9.8 2 1.8 3.7 3.8 5.7 5.6 4 3.5 8.6 5.1 13.8 3.2 2.5-.9 4.2-2.4 4-5.5-.2-4.8 0-9.7-.1-14.5 0-3.8-.1-3.9-3.9-3.9-10.3.1-20.6.1-30.9.1zm-.6 38.3c9.7 0 19.3.1 29 0 6.9 0 6.5 1.3 6.5-6.8 0-2.1-.6-2.4-2.7-1.9-8.2 2.3-15-.3-20.8-6.2-.8-.8-1.6-1.7-2.4-2.5-4.5-4.4-6.2-4.5-11-.4-2.8 2.4-5.3 5.1-8.5 6.9-7 3.9-13.9 3.9-20.7-.5-.7-.5-1.3-1-2-1.5-1.3-.9-1.7-.2-1.7 1.1v8c.1 3.7.1 3.8 4 3.8 9.9.1 20.1 0 30.3 0zm-1.1-50c-.3-5.6-5.9-11-11.5-11.3-1.9-.1-2.2.8-2 2.4.5 5.1 6.9 10.6 12.3 10.4 1 0 1.4-.6 1.2-1.5zm8.5-.3c1.9-.6 3.3-1.9 4-3.8.1-.4-.1-1.3-.2-1.3-1.9-.4-2.8 1.1-3.8 2.4-.4.5-.6 1.1-.8 1.8-.2.4.2.7.8.9zM100 6.9c0-.5-.3-.8-.8-.9-.6-.1-.9.2-1 .7-.1.7.3 1.2 1.1 1.1.4 0 .7-.4.7-.9z"/><path d="M139.2 41.1c1.4.2 2.7 1.1 3.9 1.8 7.1 4.3 12.6 10.3 17.1 17.2 4.7 7.3 8 15.3 10 23.8.5 2.1.4 3.8-1.8 4.5-2.3.7-3.2-1-3.8-2.9-1.2-4.3-2.5-8.6-4.3-12.7-4.7-10.8-11.4-19.9-21.8-25.8-.6-.3-1.2-.7-1.6-1.1-1-.9-1.1-2.1-.6-3.2.5-1.2 1.5-1.7 2.9-1.6zm-6.3-3.7c-.1 1.9-1 3.1-2.9 3.4-1.8.3-3.8-1.4-3.7-3.2.1-1.9 1.3-3.2 3.2-3.2 1.8 0 3 1.1 3.4 3zM41 28c2.3-.2 4.4-.1 3.9 3.2-.2 1.2.8 1.4 1.7 2 1.8 1 1.9 3.7.1 4.6-1.2.6-1.9 1-1.9 2.4.1 1.2-.5 1.8-1.8 1.8-1.1 0-2.1-.2-2-1.5.1-3-2-2.4-3.7-2.5-7.3-.2-7.8-1.2-4.1-7.4 1.7-2.8 3.4-5.6 5.2-8.3.6-.9 1-2.2 2.5-2.1 1 0 2.1-.4 2.7.6.5.7-.1 1.6-.5 2.3-1 1.5-2.1 2.9-2.4 4.8-1.4.7-1.7 2.3-2.5 3.4-.4.5-1.4 1.3 0 1.7.9.3 2.4.7 2.7-1 .2-1.4.1-2.7.1-4zM21.7 41.9c-1.3 0-2.7.1-4 0-.9-.1-2.1.4-2.5-.9-.3-1.1-.3-2.3.7-3.2 1.5-1.5 3-3.1 4.6-4.6 1.3-1.3 2.4-2.7 3.2-4.4.5-1.1.7-2.3-.3-3.2-1-.9-2.1-.8-3.2-.2-.7.4-1.2 1.2-2 1.4-1 .3-1.9 0-2.6-.9-.7-1 .1-1.6.5-2.2 1.7-2.5 3.9-4 7.1-3.6 3.1.4 4.5 2.6 5.4 5.1 1 2.5-.9 4.7-1.7 6.9-.3.7-1 1.3-1.5 2-.8 1.2-3 2.1-2.5 3.4.5 1.4 2.6.6 4 .6 1.4.1 2.1.5 2.1 2 0 1.6-1 1.9-2.3 1.9-1.7-.1-3.4-.1-5-.1z"/></symbol></svg>
