<svg xmlns="http://www.w3.org/2000/svg"><symbol id="icon-box"><path d="M31.239 7.211h-4.577a4.387 4.387 0 0 0 1.2-3.016v-.228A4.05 4.05 0 0 0 25.726.544a4.31 4.31 0 0 0-4.187 0L19.459 1.7A7.182 7.182 0 0 0 16.5 4.785 7.181 7.181 0 0 0 13.541 1.7L11.459.549a4.311 4.311 0 0 0-4.187 0 4.05 4.05 0 0 0-2.136 3.423V4.2a4.388 4.388 0 0 0 1.2 3.016H1.761A1.745 1.745 0 0 0 0 8.936v4.094a1.745 1.745 0 0 0 1.761 1.725h.806v15.52A1.745 1.745 0 0 0 4.327 32h24.346a1.745 1.745 0 0 0 1.761-1.725v-15.52h.806A1.745 1.745 0 0 0 33 13.03V8.936a1.745 1.745 0 0 0-1.761-1.725zm-11.06-4.264l2.082-1.151a2.831 2.831 0 0 1 2.748 0 2.627 2.627 0 0 1 1.388 2.218v.18a3.051 3.051 0 0 1-3.078 3.016h-6.044a5.686 5.686 0 0 1 2.905-4.263zM6.6 4.015A2.628 2.628 0 0 1 7.99 1.8a2.834 2.834 0 0 1 2.748 0l2.082 1.151a5.686 5.686 0 0 1 2.9 4.264H9.678A3.051 3.051 0 0 1 6.6 4.2v-.185zm6.6 12.926h-3.019a.719.719 0 1 0 0 1.437H13.2v12.185H4.327a.291.291 0 0 1-.294-.288v-15.52H13.2v2.186zm0-3.623H1.761a.291.291 0 0 1-.294-.288V8.936a.291.291 0 0 1 .294-.288H13.2v4.67zm5.133 17.245h-3.666V8.648h3.666v21.915zm10.633-.288a.291.291 0 0 1-.294.288H19.8V18.378h2.794a.719.719 0 1 0 0-1.437H19.8v-2.186h9.167v15.52zm2.567-17.245a.291.291 0 0 1-.294.288H19.8v-4.67h11.44a.291.291 0 0 1 .294.288v4.094zm-5.456 5.348h.073a.719.719 0 1 0 0-1.437h-.072a.719.719 0 1 0 0 1.437zm-19.453 0H6.7a.719.719 0 1 0 0-1.437h-.076a.719.719 0 1 0 0 1.437z"/></symbol><symbol id="icon-fresh"/><symbol id="icon-instagram" viewBox="0 0 512 512"><path d="M373.7 0H138.3C62.1 0 0 62.1 0 138.3v235.3C0 449.9 62.1 512 138.3 512h235.3c76.3 0 138.3-62.1 138.3-138.3V138.3C512 62.1 449.9 0 373.7 0zm96.9 373.7c0 53.5-43.5 97-97 97H138.3c-53.5 0-97-43.5-97-97V138.3c0-53.5 43.5-97 97-97h235.3c53.5 0 97 43.5 97 97v235.4z"/><path d="M370.6 238.1c-3.6-24.5-14.8-46.8-32.4-64.3-17.5-17.5-39.8-28.7-64.3-32.4-11.2-1.7-22.5-1.7-33.7 0-30.3 4.5-57.1 20.5-75.4 45.2s-25.9 54.9-21.4 85.2c4.5 30.3 20.5 57.1 45.2 75.4 20 14.8 43.7 22.6 68.2 22.6 5.7 0 11.4-.4 17.1-1.3 30.3-4.5 57.1-20.5 75.4-45.2 18.2-24.6 25.8-54.8 21.3-85.2zm-102.8 89.5c-19.4 2.9-38.8-2-54.5-13.7s-26-28.8-28.9-48.2c-2.9-19.4 2-38.8 13.7-54.5 11.7-15.8 28.8-26 48.2-28.9 3.6-.5 7.2-.8 10.8-.8 3.6 0 7.2.3 10.8.8 32.2 4.8 57.1 29.6 61.9 61.9 5.8 40.1-21.9 77.5-62 83.4zM400 112c-3.9-3.9-9.2-6.1-14.6-6.1s-10.8 2.2-14.6 6.1c-3.9 3.9-6.1 9.2-6.1 14.6 0 5.5 2.2 10.8 6.1 14.6 3.9 3.9 9.2 6.1 14.6 6.1s10.8-2.2 14.6-6.1c3.9-3.9 6.1-9.2 6.1-14.6 0-5.5-2.2-10.8-6.1-14.6z"/></symbol><symbol id="icon-natural" viewBox="0 0 463 463"><g stroke-width="6" stroke-miterlimit="10"><path d="M393.1 69.9C349.9 26.7 292.6 3 231.5 3S113.1 26.7 69.9 69.9C26.7 113.1 3 170.4 3 231.5s23.7 118.4 66.9 161.6c43.2 43.2 100.5 66.9 161.6 66.9s118.4-23.7 161.6-66.9c43.2-43.2 66.9-100.5 66.9-161.6s-23.7-118.4-66.9-161.6zm-9.6 313.6c-40.6 40.6-94.5 62.9-152 62.9s-111.4-22.3-152-62.9c-40.5-40.6-62.9-94.6-62.9-152s22.3-111.4 62.9-152c40.6-40.5 94.6-62.9 152-62.9s111.4 22.3 152 62.9 62.9 94.5 62.9 152-22.4 111.4-62.9 152z"/><path d="M405.4 157.4l-12.3 5.7c11.6 24.8 17.5 51.6 17.5 79.4h13.6c-.1-29.8-6.3-58.4-18.8-85.1zm-37.8-58.8c-38-38-88.6-59-142.4-59v13.6c50.2 0 97.3 19.5 132.8 55 11.5 11.5 21.4 24.4 29.5 38.2l11.7-6.9c-8.6-14.8-19.3-28.6-31.6-40.9z"/></g><path stroke-width="5" stroke-miterlimit="10" d="M306.1 279h-7.8c-13.4 0-38.4 2.5-54.6 18.7-2.1 2.1-4 4.5-5.7 7v-37h.8c13.4 0 38.4-2.4 54.6-18.7 22.3-22.3 18.6-60.8 18.5-62.4-.4-3-2.8-5.4-5.8-5.8h-7.8c-13.4 0-38.4 2.5-54.6 18.7-2.1 2.1-4 4.5-5.7 7v-17c7.3-6.5 28.7-28.4 28.7-55.1 0-31.5-29.8-56.1-31.1-57.1-2.4-2-5.8-2-8.2 0-1.3 1.1-31.1 25.7-31.1 57.1 0 26.7 21.4 48.5 28.7 55.1v16.6c-1.7-2.5-3.6-4.8-5.7-7.1-16.3-16.3-41.2-18.7-54.6-18.7h-7.8c-3 .4-5.4 2.8-5.8 5.8 0 1.6-3.8 40.1 18.5 62.4 16.3 16.3 41.2 18.7 54.6 18.7h.8v36.6c-1.7-2.4-3.7-4.6-5.8-6.6-16.3-16.3-41.2-18.7-54.6-18.7h-7.8c-3 .4-5.4 2.8-5.8 5.8 0 1.6-3.8 40.1 18.5 62.4 16.3 16.3 41.2 18.7 54.6 18.7h.8v53.2c0 3.6 2.9 6.5 6.5 6.5s6.5-2.9 6.5-6.5v-52.8h.7c13.4 0 38.4-2.4 54.6-18.7 22.3-22.3 18.6-60.8 18.5-62.4-.1-2.9-2.5-5.4-5.6-5.7zm-127.3-39.1c-13.5-13.5-15-36-15-46.3h.8c9.2 0 32 1.4 45.5 15s15 36 15 46.3c-8.8.2-32.3-1.1-46.3-15zm46.4 113c-8.8.2-32.4-1.1-46.3-15-13.5-13.5-15-36-15-46.3 8.9 0 32.5 1.1 46.3 15s15.1 36 15 46.3zm6.6-175c-7.5-7.3-22.2-24.3-22.2-43.4s14.8-36 22.1-43.3c7.4 7.3 22.1 24.3 22.1 43.3s-14.6 36.1-22 43.4zm21.4 30.6l-.4.1c13.5-13.5 36.3-15 45.5-15h.8c0 10.4-1.3 32.5-15 46.3s-37.4 15.2-46.3 15c.3-10.6 1.8-32.9 15.4-46.4zM284.5 338c-13.6 13.8-36.2 15-45.5 15h-.8c0-10.4 1.5-32.8 15-46.3l-.1-.1c13.5-13.5 36.3-15 45.5-15h.8c0 10.3-1.3 32.5-14.9 46.4z"/></symbol><symbol id="icon-twitter" viewBox="0 0 612 612"><path d="M606 114.2c-4.9-3.4-11.4-3.2-16.1.3-3.3 2.5-8.2 4.6-13.9 6.5 18.8-23.3 19.1-38.9 18.8-42.8-.4-5-3.4-9.4-7.9-11.5-4.5-2.1-9.9-1.7-14 1.3-25.7 18.4-51.3 22.4-66.3 22.9-24.4-22.6-55.9-35.1-89.4-35.1-72.5 0-131.5 59-131.5 131.5 0 5.2.3 10.5.9 15.7-121-3-219.1-117-220.1-118.2-2.9-3.4-7.3-5.3-11.8-4.9-4.5.4-8.5 2.9-10.8 6.8-30.8 52.6-18.2 102.5 2.9 137.4-3.9-2.1-8.7-2.2-12.7-.2-4.6 2.3-7.6 7-7.7 12.2-.9 55.3 24.4 88.4 49.8 107.7-1.9.8-3.6 1.9-5 3.5-3.3 3.6-4.5 8.8-3 13.5 17.7 57.1 59.3 78.5 88.5 86.6-33.5 23.6-74.9 29.1-106.4 29.1-20.1 0-33.9-2.4-34.1-2.4-6.3-1.1-12.6 2.3-15.1 8.1-2.6 5.9-.7 12.7 4.4 16.6 63.1 47.5 139.4 57.4 192.3 57.4 41.8 0 70.8-6.1 72.3-6.4 271.3-63.4 281.6-306.6 281.2-350.9 50.9-46.7 59-65 60.2-69.5 1.6-5.8-.7-11.9-5.5-15.2zm-78.1 68.4c-3.1 2.9-4.8 7-4.5 11.2.2 2.6 15 264.8-259.4 328.9-.3.1-27.6 5.8-66.2 5.8-36 0-83.7-4.9-129.1-24.9 41.6-2.7 92.7-15.4 129.4-56.1 3.7-4.1 4.6-9.9 2.3-14.9-2.2-5-7.2-8.2-12.7-8.2-2.6 0-57.2-.7-84.5-51.4 12.6.4 24.1-1.5 32.6-5.3 5.4-2.5 8.7-8.2 8-14.1-.6-5.9-5-10.8-10.9-12.1-3-.6-65.8-15-77.1-81.2 9.8 3.8 21.8 6.4 33.4 4.7 5.4-.8 9.8-4.7 11.3-9.9s-.2-10.9-4.3-14.4c-2.8-2.4-62.7-54.4-36.7-122.6C94.4 153.4 189.4 236.8 304 230.4c4.1-.2 8-2.3 10.4-5.7 2.4-3.3 3.3-7.6 2.2-11.6-2.1-8.4-3.2-17.1-3.2-25.8 0-57.2 46.5-103.7 103.7-103.7 28 0 54.3 11 74 31 2.6 2.6 6 4.1 9.7 4.1h2.1c10.2 0 26.2-1.2 44.5-7.1-5.9 6.2-13.5 13.2-23.4 20.8-4.9 3.8-6.7 10.3-4.5 16 2.2 5.7 8 9.3 14 8.8 2.2-.2 12.1-1 24.3-3.2-7.6 7.8-17.4 17.3-29.9 28.6z"/></symbol><symbol id="icon-vk" viewBox="0 0 526.1 330"><path d="M501.7 249.1c-11-13.1-23-24.7-36.4-37.4-1.4-1.3-2.8-2.7-4.2-4-2.9-2.7-5.8-5.5-8.7-8.3-5.7-5.6-6.6-7.8-6.7-8.2.1-.5.6-2.8 4.9-8.8 6.6-9.3 13.7-18.6 20.9-28.1l2.8-3.7c5.3-7 10.8-14.2 16.1-21.5l1.4-2c12.3-17 25-34.6 32-56.7 2.3-7.3 4.7-18.3-1.6-28.5C515.8 32 505 29 497.4 27.7c-3.7-.6-7.1-.7-9.7-.7l-77.7-.1c-16.4-.3-28.3 7.8-34.5 23.4-3.9 9.7-8.7 21.7-14.2 32.8-10.1 20.5-22.8 44-40.5 63.5v-.7l-.1-90.3c0-.6 0-1.4-.2-2.5-1.3-9.8-4.1-30.2-31-35.5l-.6-.1c-.7-.1-1.6-.2-2.8-.2h-80.9c-18.1 0-27.9 8.6-35 16.9-6.3 7.3-8.2 14.8-5.6 22.2 2.6 7.2 8.6 11.8 18 13.7 5.8 1.1 8.2 3.8 9.2 10.4 2.7 17.7 3 37 1.1 60.6-.2 2.6-.6 4.9-.9 6.9-3.1-3.3-6-7.4-8.6-11-17.8-25.2-32.7-52.8-45.6-84.6-6.5-16-19-25-35.1-25.3-25-.4-48.1-.4-70.7 0-13.1.2-22.5 4.7-27.9 13.1-5.4 8.5-5.5 18.9-.1 31C35.4 141 63.9 191.8 96.6 236.1c23.4 31.6 47 53.6 74.3 69.3 29 16.6 61.3 24.6 98.9 24.6 4.2 0 8.5-.1 12.9-.3 25.9-1.2 38-13 39.2-38.4.6-10.8 1.6-18.8 5.2-25.5 3.7 2.6 7.1 6 9.3 8.4 1.5 1.6 3 3.3 4.5 5 1.5 1.7 3.1 3.4 4.5 5 5.8 6.6 12.8 14.3 20 21.7 17 17.3 36.7 25.3 58.6 23.7h72.1c10.6-.6 19.7-6.5 25.2-16.1 6.2-11 6.1-24.7-.1-36.8-5.9-10.7-13.2-20-19.5-27.6zM203 186.3c5.7-1.6 13.6-6 18.8-18.1 2.9-6.7 4.5-14 5.4-23.7 2.2-26.2 1.8-48-1.2-68.7-1.3-9.2-4.7-17.2-9.9-23.6h68.5c.4.1.8.2 1 .3.2.7.5 2.1 1 4.9l.1 88.4c-.3 11.9 5.6 33.1 22.7 39.4l1.2.4h.3c16.9 5 28.2-7.3 32.5-12l.7-.8c22.1-23.5 36.9-50.6 48.4-74.1 5.9-11.8 10.8-24 15.3-35.3.4-.9.6-1.4.7-1.7h1.4l78.1.1h2.7C485.2 77.9 475 92 464.3 107l-1.6 2.2c-4.8 6.7-10 13.5-15 20.1l-3.4 4.5c-6.1 7.9-14 18.4-21.4 28.9-16.7 23.4-15 41.2 5.8 61.5 4.4 4.3 8.9 8.6 13.3 12.7 11.5 10.8 23.4 22 33.6 34.4 5.2 6.3 11.1 13.7 15.2 21.8.5 1 .7 1.8.7 2.5h-69.4c-11.7 1-21.8-3.3-31.9-13.4-6.2-6.4-12.2-13-18.9-20.5-3.2-3.6-6.2-7.1-9.4-10.4-4.5-4.9-9.6-9.9-16.2-14.2-11.3-7.4-21.1-7.1-27.3-5.5-6.1 1.6-14.7 5.8-21.1 17.4-7.4 13.5-9 27.7-9.7 41-.1 2.4-.3 4-.5 5-1.1.2-3 .5-6 .6-36.4 1.7-66.8-4.7-93.1-19.8-23.1-13.2-43.3-32.2-63.7-59.9-30.3-41-57.2-88.7-86.9-154.1 20.6-.3 41.9-.3 64.7.1 1.3 0 2.3.1 3.8 3.8 13.9 34.2 30.1 64.1 49.4 91.5 5 7.1 11.8 16.8 22.2 23.9 10.7 7.3 19.8 6.9 25.5 5.2z"/></symbol></svg>